<?xml version="1.0" encoding="utf-8"?>
<!-- Generator: Adobe Illustrator 24.3.0, SVG Export Plug-In . SVG Version: 6.00 Build 0)  -->
<svg version="1.1" id="Layer_1" xmlns="http://www.w3.org/2000/svg" xmlns:xlink="http://www.w3.org/1999/xlink" x="0px" y="0px"
	 viewBox="0 0 949.32 174.76" style="enable-background:new 0 0 949.32 174.76;" xml:space="preserve">
<g>
	<g>
		<g>
			<path style="fill:#0F6E6E;" d="M285.44,19.13c7.83,6.12,13,14.44,15.52,24.96h-19.97c-2.07-5.13-5.29-9.18-9.65-12.14
				c-4.36-2.97-9.6-4.45-15.72-4.45c-5.04,0-9.58,1.26-13.63,3.78c-4.05,2.52-7.2,6.12-9.45,10.8c-2.25,4.68-3.37,10.17-3.37,16.46
				c0,6.21,1.12,11.65,3.37,16.33c2.25,4.68,5.4,8.28,9.45,10.79c4.05,2.52,8.59,3.78,13.63,3.78c6.12,0,11.36-1.48,15.72-4.45
				c4.36-2.97,7.58-7.02,9.65-12.14h19.97c-2.52,10.53-7.69,18.85-15.52,24.96c-7.83,6.12-17.68,9.18-29.55,9.18
				c-9.09,0-17.12-2.05-24.09-6.14c-6.97-4.09-12.37-9.83-16.19-17.2c-3.82-7.38-5.73-15.74-5.73-25.1c0-9.45,1.91-17.86,5.73-25.23
				c3.82-7.38,9.2-13.11,16.13-17.2c6.93-4.09,14.98-6.14,24.15-6.14C267.76,9.95,277.61,13.01,285.44,19.13z"/>
			<path style="fill:#0F6E6E;" d="M369.43,35.05c5.8,3.06,10.37,7.49,13.7,13.29c3.33,5.8,4.99,12.62,4.99,20.44
				s-1.67,14.62-4.99,20.38c-3.33,5.76-7.89,10.19-13.7,13.29c-5.8,3.1-12.35,4.66-19.63,4.66c-7.29,0-13.83-1.55-19.63-4.66
				c-5.8-3.1-10.37-7.53-13.7-13.29c-3.33-5.76-4.99-12.55-4.99-20.38s1.66-14.64,4.99-20.44c3.33-5.8,7.89-10.23,13.7-13.29
				c5.8-3.06,12.35-4.59,19.63-4.59C357.09,30.46,363.63,31.99,369.43,35.05z M336.31,52.52c-3.69,3.73-5.53,9.15-5.53,16.26
				c0,7.11,1.84,12.53,5.53,16.26c3.69,3.73,8.19,5.6,13.49,5.6c5.31,0,9.8-1.87,13.49-5.6c3.69-3.73,5.53-9.15,5.53-16.26
				c0-7.11-1.84-12.53-5.53-16.26c-3.69-3.73-8.19-5.6-13.49-5.6C344.49,46.92,339.99,48.79,336.31,52.52z"/>
			<path style="fill:#0F6E6E;" d="M431.71,34.44c4.59-2.74,9.72-4.12,15.38-4.12V50.7h-5.53c-13.94,0-20.92,6.48-20.92,19.43v36.03
				h-19.03V31.41h19.03v14.3C423.43,40.94,427.12,37.19,431.71,34.44z"/>
			<path style="fill:#0F6E6E;" d="M522.79,38.83c5.13,5.67,7.69,13.63,7.69,23.88v43.45h-18.89V64.87c0-5.94-1.53-10.55-4.59-13.83
				c-3.06-3.28-7.24-4.93-12.55-4.93c-5.4,0-9.72,1.75-12.95,5.26c-3.24,3.51-4.86,8.55-4.86,15.11v39.67h-19.03V31.41h19.03v14.98
				c1.98-5.04,5.24-8.97,9.78-11.81c4.54-2.83,9.78-4.25,15.72-4.25C510.78,30.33,517.66,33.16,522.79,38.83z"/>
			<path style="fill:#0F6E6E;" d="M616.84,72.43h-54.78c0.27,6.66,2.07,11.56,5.4,14.71c3.33,3.15,7.47,4.72,12.41,4.72
				c4.41,0,8.07-1.08,11-3.24c2.92-2.16,4.79-5.08,5.6-8.77h20.11c-0.99,5.22-3.1,9.9-6.34,14.03c-3.24,4.14-7.4,7.38-12.48,9.72
				c-5.08,2.34-10.73,3.51-16.93,3.51c-7.29,0-13.76-1.55-19.43-4.66c-5.67-3.1-10.08-7.53-13.22-13.29
				c-3.15-5.76-4.72-12.55-4.72-20.38s1.57-14.64,4.72-20.44c3.15-5.8,7.56-10.23,13.22-13.29c5.67-3.06,12.14-4.59,19.43-4.59
				c7.38,0,13.83,1.53,19.36,4.59c5.53,3.06,9.8,7.27,12.82,12.62c3.01,5.35,4.52,11.45,4.52,18.28
				C617.51,67.84,617.29,70,616.84,72.43z M593.56,50.16c-3.46-3.15-7.71-4.72-12.75-4.72c-5.13,0-9.45,1.58-12.95,4.72
				c-3.51,3.15-5.44,7.78-5.8,13.9h36.3C598.62,57.94,597.02,53.31,593.56,50.16z"/>
			<path style="fill:#0F6E6E;" d="M661.1,34.44c4.59-2.74,9.72-4.12,15.38-4.12V50.7h-5.53c-13.94,0-20.92,6.48-20.92,19.43v36.03
				h-19.03V31.41h19.03v14.3C652.82,40.94,656.51,37.19,661.1,34.44z"/>
			<path style="fill:#1A9A9A;" d="M764.86,83.36c-3.96,7.2-9.69,12.8-17.2,16.8c-7.51,4-16.44,6-26.79,6H687V10.9h33.87
				c10.34,0,19.27,1.96,26.79,5.87c7.51,3.91,13.24,9.45,17.2,16.6c3.96,7.15,5.94,15.5,5.94,25.03
				C770.8,67.84,768.82,76.16,764.86,83.36z M743.07,81.06c5.62-5.4,8.43-12.95,8.43-22.67c0-9.8-2.81-17.41-8.43-22.8
				c-5.62-5.4-13.56-8.1-23.82-8.1h-13.22v61.67h13.22C729.51,89.16,737.45,86.46,743.07,81.06z"/>
			<path style="fill:#1A9A9A;" d="M830.58,34.91c4.5,2.97,7.69,6.97,9.58,12.01V31.41h18.89v74.76h-18.89V90.51
				c-1.89,5.04-5.08,9.06-9.58,12.08c-4.5,3.02-9.9,4.52-16.19,4.52c-6.3,0-11.97-1.53-17-4.59c-5.04-3.06-8.97-7.49-11.81-13.29
				c-2.83-5.8-4.25-12.62-4.25-20.44s1.42-14.64,4.25-20.44c2.83-5.8,6.77-10.23,11.81-13.29c5.04-3.06,10.7-4.59,17-4.59
				C820.68,30.46,826.08,31.95,830.58,34.91z M806.02,52.86c-3.6,3.87-5.4,9.18-5.4,15.92s1.8,12.03,5.4,15.86
				c3.6,3.82,8.37,5.73,14.3,5.73c5.76,0,10.5-1.96,14.24-5.87c3.73-3.91,5.6-9.15,5.6-15.72c0-6.66-1.87-11.94-5.6-15.86
				c-3.73-3.91-8.48-5.87-14.24-5.87C814.38,47.06,809.61,48.99,806.02,52.86z"/>
			<path style="fill:#1A9A9A;" d="M889.14,31.41l20.38,50.74l18.89-50.74h20.92l-45.74,110.38h-21.05L899.39,104l-31.44-72.6H889.14
				z"/>
		</g>
		<g>
			<path style="fill:#1A9A9A;" d="M221.7,135.16v1.79h-4.81v15.26h-2.2v-15.26h-4.81v-1.79H221.7z"/>
			<path style="fill:#1A9A9A;" d="M238.97,140.2c0.95,0.99,1.43,2.42,1.43,4.29v7.72h-2.2v-7.52c0-1.32-0.34-2.34-1.02-3.05
				s-1.6-1.06-2.76-1.06c-1.21,0-2.18,0.39-2.9,1.17s-1.09,1.92-1.09,3.42v7.04h-2.2v-17.9h2.2v7.77c0.34-1.08,0.94-1.91,1.8-2.49
				s1.86-0.87,2.99-0.87C236.77,138.72,238.02,139.21,238.97,140.2z"/>
			<path style="fill:#1A9A9A;" d="M260.26,146.05h-10.62c0.05,1.52,0.48,2.65,1.29,3.41c0.81,0.76,1.81,1.14,2.99,1.14
				c1.06,0,1.96-0.27,2.67-0.81c0.72-0.54,1.16-1.26,1.32-2.17h2.35c-0.16,0.92-0.52,1.74-1.08,2.47c-0.56,0.73-1.28,1.29-2.17,1.69
				c-0.89,0.4-1.89,0.6-3,0.6c-1.27,0-2.4-0.27-3.39-0.82c-0.98-0.55-1.75-1.33-2.31-2.36c-0.56-1.02-0.83-2.23-0.83-3.62
				c0-1.39,0.28-2.6,0.83-3.63c0.56-1.03,1.33-1.82,2.31-2.37s2.11-0.82,3.39-0.82c1.29,0,2.42,0.27,3.37,0.82s1.69,1.28,2.2,2.2
				c0.51,0.92,0.76,1.93,0.76,3.05C260.35,145.3,260.32,145.71,260.26,146.05z M257.65,142.51c-0.37-0.66-0.88-1.15-1.52-1.48
				c-0.64-0.32-1.35-0.48-2.1-0.48c-1.21,0-2.23,0.38-3.05,1.13c-0.82,0.75-1.27,1.85-1.33,3.3h8.49
				C258.18,144,258.02,143.17,257.65,142.51z"/>
			<path style="fill:#1A9A9A;" d="M286.64,139.73c0.9,0.65,1.52,1.51,1.87,2.59v-8.01h2.2v17.9h-2.2v-3.39
				c-0.36,1.08-0.98,1.94-1.87,2.59c-0.9,0.65-1.99,0.97-3.28,0.97c-1.18,0-2.23-0.27-3.14-0.82c-0.92-0.55-1.64-1.33-2.17-2.36
				c-0.52-1.02-0.79-2.23-0.79-3.62c0-1.39,0.26-2.6,0.79-3.63c0.52-1.03,1.25-1.82,2.17-2.37c0.92-0.55,1.97-0.82,3.14-0.82
				C284.65,138.76,285.74,139.09,286.64,139.73z M280.74,142.02c-0.82,0.86-1.22,2.05-1.22,3.57s0.41,2.71,1.22,3.57
				c0.81,0.86,1.9,1.29,3.25,1.29c0.87,0,1.65-0.2,2.33-0.6c0.69-0.4,1.22-0.97,1.61-1.71s0.58-1.58,0.58-2.55
				c0-0.97-0.19-1.82-0.58-2.56s-0.92-1.31-1.61-1.71c-0.69-0.39-1.46-0.59-2.33-0.59C282.63,140.72,281.55,141.15,280.74,142.02z"
				/>
			<path style="fill:#1A9A9A;" d="M307.3,139.73c0.9,0.65,1.52,1.51,1.87,2.59v-3.39h2.2v13.28h-2.2v-3.39
				c-0.36,1.08-0.98,1.94-1.87,2.59c-0.9,0.65-1.99,0.97-3.28,0.97c-1.18,0-2.23-0.27-3.14-0.82c-0.92-0.55-1.64-1.33-2.17-2.36
				c-0.52-1.02-0.79-2.23-0.79-3.62c0-1.39,0.26-2.6,0.79-3.63c0.52-1.03,1.25-1.82,2.17-2.37c0.92-0.55,1.97-0.82,3.14-0.82
				C305.31,138.76,306.4,139.09,307.3,139.73z M301.39,142.02c-0.81,0.86-1.22,2.05-1.22,3.57s0.41,2.71,1.22,3.57
				c0.81,0.86,1.9,1.29,3.25,1.29c0.87,0,1.65-0.2,2.33-0.6c0.69-0.4,1.22-0.97,1.61-1.71c0.39-0.73,0.58-1.58,0.58-2.55
				c0-0.97-0.19-1.82-0.58-2.56c-0.39-0.74-0.92-1.31-1.61-1.71c-0.69-0.39-1.46-0.59-2.33-0.59
				C303.29,140.72,302.21,141.15,301.39,142.02z"/>
			<path style="fill:#1A9A9A;" d="M320.15,138.93l4.31,10.45l3.99-10.45h2.44l-7.89,19.57h-2.49l2.76-6.51l-5.59-13.06H320.15z"/>
			<path style="fill:#1A9A9A;" d="M348.5,138.93l4.31,10.45l3.99-10.45h2.44l-7.89,19.57h-2.49l2.76-6.51l-5.59-13.06H348.5z"/>
			<path style="fill:#1A9A9A;" d="M375.05,139.59c1.01,0.55,1.8,1.34,2.37,2.37c0.57,1.03,0.86,2.24,0.86,3.63
				c0,1.39-0.29,2.59-0.86,3.62c-0.57,1.02-1.36,1.81-2.37,2.36c-1.01,0.55-2.15,0.82-3.42,0.82s-2.42-0.27-3.42-0.82
				c-1.01-0.55-1.8-1.33-2.38-2.36s-0.87-2.23-0.87-3.62c0-1.39,0.29-2.6,0.87-3.63s1.37-1.82,2.38-2.37
				c1.01-0.55,2.15-0.82,3.42-0.82S374.04,139.04,375.05,139.59z M369.44,141.23c-0.67,0.36-1.21,0.9-1.62,1.63
				c-0.41,0.73-0.62,1.64-0.62,2.72c0,1.06,0.21,1.96,0.62,2.7c0.41,0.73,0.95,1.28,1.62,1.63c0.67,0.36,1.4,0.53,2.19,0.53
				c0.79,0,1.52-0.18,2.19-0.53c0.67-0.35,1.21-0.9,1.62-1.63c0.41-0.73,0.62-1.63,0.62-2.7c0-1.08-0.21-1.99-0.62-2.72
				c-0.41-0.73-0.95-1.28-1.62-1.63c-0.67-0.36-1.4-0.53-2.19-0.53C370.84,140.7,370.11,140.88,369.44,141.23z"/>
			<path style="fill:#1A9A9A;" d="M397.32,138.93v13.28h-2.2v-3.12c-0.34,1.08-0.94,1.91-1.8,2.48c-0.86,0.57-1.87,0.86-3.01,0.86
				c-1.53,0-2.77-0.5-3.72-1.49c-0.95-0.99-1.43-2.42-1.43-4.27v-7.74h2.2v7.52c0,1.32,0.34,2.34,1.02,3.06
				c0.68,0.72,1.6,1.08,2.76,1.08c1.21,0,2.18-0.39,2.9-1.17c0.73-0.78,1.09-1.92,1.09-3.42v-7.06H397.32z"/>
			<path style="fill:#1A9A9A;" d="M421.87,150.28v1.94h-1.64c-1.35,0-2.37-0.32-3.04-0.97c-0.67-0.64-1-1.72-1-3.24v-7.16h-1.98
				v-1.91h1.98v-3.31h2.23v3.31h3.43v1.91h-3.43v7.21c0,0.86,0.16,1.44,0.47,1.75c0.31,0.31,0.86,0.47,1.63,0.47H421.87z"/>
			<path style="fill:#1A9A9A;" d="M440.71,138.93v13.28h-2.2v-3.12c-0.34,1.08-0.94,1.91-1.8,2.48c-0.86,0.57-1.87,0.86-3.01,0.86
				c-1.53,0-2.77-0.5-3.72-1.49c-0.95-0.99-1.43-2.42-1.43-4.27v-7.74h2.2v7.52c0,1.32,0.34,2.34,1.02,3.06
				c0.68,0.72,1.6,1.08,2.76,1.08c1.21,0,2.18-0.39,2.9-1.17c0.73-0.78,1.09-1.92,1.09-3.42v-7.06H440.71z"/>
			<path style="fill:#1A9A9A;" d="M452.71,139.48c0.84-0.51,1.84-0.76,3-0.76v2.39h-0.68c-1.24,0-2.26,0.32-3.05,0.96
				c-0.79,0.64-1.19,1.69-1.19,3.16v6.99h-2.2v-13.28h2.2v2.68C451.24,140.7,451.87,139.99,452.71,139.48z"/>
			<path style="fill:#1A9A9A;" d="M472.98,140.2c0.95,0.99,1.43,2.42,1.43,4.29v7.72h-2.2v-7.52c0-1.32-0.34-2.34-1.02-3.05
				s-1.6-1.06-2.76-1.06c-1.21,0-2.18,0.39-2.9,1.17s-1.09,1.92-1.09,3.42v7.04h-2.2v-13.28h2.2v3.14c0.34-1.08,0.94-1.91,1.8-2.49
				c0.86-0.58,1.86-0.87,2.99-0.87C470.78,138.72,472.03,139.21,472.98,140.2z"/>
			<path style="fill:#1A9A9A;" d="M492.5,134.06c0.27-0.25,0.64-0.38,1.09-0.38c0.45,0,0.81,0.13,1.09,0.38
				c0.27,0.25,0.41,0.58,0.41,0.98c0,0.4-0.14,0.73-0.41,0.98c-0.27,0.25-0.64,0.37-1.09,0.37c-0.45,0-0.81-0.12-1.09-0.37
				c-0.27-0.25-0.41-0.58-0.41-0.98C492.09,134.64,492.23,134.31,492.5,134.06z M494.68,138.93v13.28h-2.2v-13.28H494.68z"/>
			<path style="fill:#1A9A9A;" d="M508.9,150.28v1.94h-1.64c-1.35,0-2.37-0.32-3.04-0.97c-0.67-0.64-1-1.72-1-3.24v-7.16h-1.98
				v-1.91h1.98v-3.31h2.23v3.31h3.43v1.91h-3.43v7.21c0,0.86,0.16,1.44,0.47,1.75c0.31,0.31,0.86,0.47,1.63,0.47H508.9z"/>
			<path style="fill:#1A9A9A;" d="M534.99,139.73c0.9,0.65,1.52,1.51,1.87,2.59v-3.39h2.2v13.28h-2.2v-3.39
				c-0.36,1.08-0.98,1.94-1.87,2.59c-0.9,0.65-1.99,0.97-3.28,0.97c-1.18,0-2.23-0.27-3.14-0.82c-0.92-0.55-1.64-1.33-2.17-2.36
				c-0.52-1.02-0.79-2.23-0.79-3.62c0-1.39,0.26-2.6,0.79-3.63c0.52-1.03,1.25-1.82,2.17-2.37c0.92-0.55,1.97-0.82,3.14-0.82
				C533,138.76,534.1,139.09,534.99,139.73z M529.09,142.02c-0.82,0.86-1.22,2.05-1.22,3.57s0.41,2.71,1.22,3.57
				c0.81,0.86,1.9,1.29,3.25,1.29c0.87,0,1.65-0.2,2.33-0.6c0.69-0.4,1.22-0.97,1.61-1.71s0.58-1.58,0.58-2.55
				c0-0.97-0.19-1.82-0.58-2.56s-0.92-1.31-1.61-1.71c-0.69-0.39-1.46-0.59-2.33-0.59C530.99,140.72,529.9,141.15,529.09,142.02z"/>
			<path style="fill:#1A9A9A;" d="M551.04,139.48c0.84-0.51,1.84-0.76,3-0.76v2.39h-0.68c-1.24,0-2.26,0.32-3.05,0.96
				c-0.79,0.64-1.19,1.69-1.19,3.16v6.99h-2.2v-13.28h2.2v2.68C549.57,140.7,550.2,139.99,551.04,139.48z"/>
			<path style="fill:#1A9A9A;" d="M570.02,139.59c1.01,0.55,1.8,1.34,2.37,2.37c0.57,1.03,0.86,2.24,0.86,3.63
				c0,1.39-0.29,2.59-0.86,3.62c-0.57,1.02-1.36,1.81-2.37,2.36c-1.01,0.55-2.15,0.82-3.42,0.82c-1.27,0-2.42-0.27-3.42-0.82
				c-1.01-0.55-1.8-1.33-2.38-2.36c-0.58-1.02-0.87-2.23-0.87-3.62c0-1.39,0.29-2.6,0.87-3.63c0.58-1.03,1.37-1.82,2.38-2.37
				c1.01-0.55,2.15-0.82,3.42-0.82C567.87,138.76,569.01,139.04,570.02,139.59z M564.4,141.23c-0.67,0.36-1.21,0.9-1.62,1.63
				c-0.41,0.73-0.62,1.64-0.62,2.72c0,1.06,0.21,1.96,0.62,2.7c0.41,0.73,0.95,1.28,1.62,1.63c0.67,0.36,1.4,0.53,2.19,0.53
				c0.79,0,1.52-0.18,2.19-0.53c0.67-0.35,1.21-0.9,1.62-1.63c0.41-0.73,0.62-1.63,0.62-2.7c0-1.08-0.21-1.99-0.62-2.72
				c-0.41-0.73-0.95-1.28-1.62-1.63c-0.67-0.36-1.4-0.53-2.19-0.53C565.8,140.7,565.07,140.88,564.4,141.23z"/>
			<path style="fill:#1A9A9A;" d="M592.28,138.93v13.28h-2.2v-3.12c-0.34,1.08-0.94,1.91-1.8,2.48c-0.86,0.57-1.87,0.86-3.01,0.86
				c-1.53,0-2.77-0.5-3.72-1.49c-0.95-0.99-1.43-2.42-1.43-4.27v-7.74h2.2v7.52c0,1.32,0.34,2.34,1.02,3.06
				c0.68,0.72,1.6,1.08,2.76,1.08c1.21,0,2.18-0.39,2.9-1.17c0.73-0.78,1.09-1.92,1.09-3.42v-7.06H592.28z"/>
			<path style="fill:#1A9A9A;" d="M610.91,140.2c0.95,0.99,1.43,2.42,1.43,4.29v7.72h-2.2v-7.52c0-1.32-0.34-2.34-1.02-3.05
				c-0.68-0.71-1.6-1.06-2.76-1.06c-1.21,0-2.18,0.39-2.9,1.17c-0.73,0.78-1.09,1.92-1.09,3.42v7.04h-2.2v-13.28h2.2v3.14
				c0.34-1.08,0.94-1.91,1.8-2.49c0.86-0.58,1.86-0.87,2.99-0.87C608.71,138.72,609.96,139.21,610.91,140.2z"/>
			<path style="fill:#1A9A9A;" d="M628.8,139.73c0.9,0.65,1.52,1.51,1.87,2.59v-8.01h2.2v17.9h-2.2v-3.39
				c-0.36,1.08-0.98,1.94-1.87,2.59c-0.9,0.65-1.99,0.97-3.28,0.97c-1.18,0-2.23-0.27-3.14-0.82c-0.92-0.55-1.64-1.33-2.17-2.36
				c-0.52-1.02-0.79-2.23-0.79-3.62c0-1.39,0.26-2.6,0.79-3.63c0.52-1.03,1.25-1.82,2.17-2.37c0.92-0.55,1.97-0.82,3.14-0.82
				C626.81,138.76,627.9,139.09,628.8,139.73z M622.9,142.02c-0.82,0.86-1.22,2.05-1.22,3.57s0.41,2.71,1.22,3.57
				c0.81,0.86,1.9,1.29,3.25,1.29c0.87,0,1.65-0.2,2.33-0.6c0.69-0.4,1.22-0.97,1.61-1.71c0.39-0.73,0.58-1.58,0.58-2.55
				c0-0.97-0.19-1.82-0.58-2.56c-0.39-0.74-0.92-1.31-1.61-1.71c-0.69-0.39-1.46-0.59-2.33-0.59
				C624.79,140.72,623.71,141.15,622.9,142.02z"/>
			<path style="fill:#1A9A9A;" d="M658.84,139.94c0.91,0.78,1.46,1.83,1.66,3.16h-2.1c-0.1-0.79-0.42-1.44-0.98-1.95
				c-0.56-0.51-1.3-0.76-2.24-0.76c-0.79,0-1.41,0.19-1.85,0.57c-0.44,0.38-0.67,0.89-0.67,1.54c0,0.48,0.15,0.88,0.45,1.17
				c0.3,0.3,0.67,0.52,1.11,0.68c0.44,0.15,1.05,0.32,1.83,0.5c0.98,0.23,1.78,0.46,2.38,0.69c0.61,0.23,1.12,0.61,1.55,1.12
				c0.43,0.52,0.64,1.21,0.64,2.08c0,1.08-0.41,1.96-1.22,2.64c-0.81,0.68-1.9,1.02-3.25,1.02c-1.58,0-2.87-0.38-3.87-1.14
				c-1-0.76-1.59-1.81-1.77-3.17h2.13c0.08,0.81,0.43,1.46,1.05,1.96c0.62,0.5,1.44,0.75,2.46,0.75c0.76,0,1.35-0.19,1.78-0.58
				c0.43-0.39,0.64-0.89,0.64-1.52c0-0.52-0.15-0.93-0.46-1.23c-0.31-0.31-0.69-0.54-1.14-0.7c-0.45-0.16-1.07-0.33-1.86-0.51
				c-0.98-0.23-1.77-0.45-2.36-0.68c-0.59-0.23-1.09-0.58-1.5-1.08s-0.62-1.16-0.62-2c0-1.11,0.41-2.01,1.23-2.7
				c0.82-0.69,1.94-1.03,3.36-1.03C656.72,138.76,657.93,139.15,658.84,139.94z"/>
			<path style="fill:#1A9A9A;" d="M674.26,150.28v1.94h-1.64c-1.36,0-2.37-0.32-3.04-0.97c-0.67-0.64-1-1.72-1-3.24v-7.16h-1.98
				v-1.91h1.98v-3.31h2.23v3.31h3.43v1.91h-3.43v7.21c0,0.86,0.16,1.44,0.47,1.75c0.31,0.31,0.86,0.47,1.63,0.47H674.26z"/>
			<path style="fill:#1A9A9A;" d="M690.02,139.73c0.9,0.65,1.52,1.51,1.87,2.59v-3.39h2.2v13.28h-2.2v-3.39
				c-0.36,1.08-0.98,1.94-1.87,2.59c-0.9,0.65-1.99,0.97-3.28,0.97c-1.18,0-2.23-0.27-3.14-0.82c-0.92-0.55-1.64-1.33-2.16-2.36
				c-0.52-1.02-0.79-2.23-0.79-3.62c0-1.39,0.26-2.6,0.79-3.63c0.52-1.03,1.25-1.82,2.16-2.37c0.92-0.55,1.97-0.82,3.14-0.82
				C688.03,138.76,689.13,139.09,690.02,139.73z M684.12,142.02c-0.81,0.86-1.22,2.05-1.22,3.57s0.41,2.71,1.22,3.57
				c0.81,0.86,1.9,1.29,3.25,1.29c0.87,0,1.65-0.2,2.33-0.6c0.69-0.4,1.22-0.97,1.61-1.71s0.58-1.58,0.58-2.55
				c0-0.97-0.19-1.82-0.58-2.56s-0.92-1.31-1.61-1.71c-0.69-0.39-1.46-0.59-2.33-0.59C686.02,140.72,684.93,141.15,684.12,142.02z"
				/>
			<path style="fill:#1A9A9A;" d="M706.07,139.48c0.84-0.51,1.84-0.76,3-0.76v2.39h-0.68c-1.24,0-2.26,0.32-3.05,0.96
				c-0.79,0.64-1.19,1.69-1.19,3.16v6.99h-2.2v-13.28h2.2v2.68C704.6,140.7,705.23,139.99,706.07,139.48z"/>
			<path style="fill:#1A9A9A;" d="M721.94,150.28v1.94h-1.64c-1.35,0-2.37-0.32-3.04-0.97c-0.67-0.64-1-1.72-1-3.24v-7.16h-1.98
				v-1.91h1.98v-3.31h2.23v3.31h3.43v1.91h-3.43v7.21c0,0.86,0.16,1.44,0.47,1.75c0.31,0.31,0.86,0.47,1.63,0.47H721.94z"/>
			<path style="fill:#1A9A9A;" d="M736.76,139.94c0.91,0.78,1.46,1.83,1.66,3.16h-2.1c-0.1-0.79-0.42-1.44-0.98-1.95
				s-1.3-0.76-2.24-0.76c-0.79,0-1.41,0.19-1.85,0.57c-0.44,0.38-0.67,0.89-0.67,1.54c0,0.48,0.15,0.88,0.45,1.17
				c0.3,0.3,0.67,0.52,1.11,0.68c0.44,0.15,1.05,0.32,1.83,0.5c0.98,0.23,1.78,0.46,2.38,0.69c0.61,0.23,1.12,0.61,1.55,1.12
				c0.43,0.52,0.64,1.21,0.64,2.08c0,1.08-0.41,1.96-1.22,2.64c-0.81,0.68-1.9,1.02-3.25,1.02c-1.58,0-2.87-0.38-3.87-1.14
				c-1-0.76-1.59-1.81-1.77-3.17h2.13c0.08,0.81,0.43,1.46,1.05,1.96c0.62,0.5,1.44,0.75,2.46,0.75c0.76,0,1.35-0.19,1.78-0.58
				c0.43-0.39,0.64-0.89,0.64-1.52c0-0.52-0.15-0.93-0.46-1.23c-0.31-0.31-0.69-0.54-1.14-0.7c-0.45-0.16-1.07-0.33-1.86-0.51
				c-0.98-0.23-1.77-0.45-2.36-0.68c-0.59-0.23-1.09-0.58-1.5-1.08s-0.62-1.16-0.62-2c0-1.11,0.41-2.01,1.23-2.7
				c0.82-0.69,1.94-1.03,3.36-1.03C734.64,138.76,735.85,139.15,736.76,139.94z"/>
			<path style="fill:#1A9A9A;" d="M762.51,150.28v1.94h-1.64c-1.35,0-2.37-0.32-3.04-0.97c-0.67-0.64-1-1.72-1-3.24v-7.16h-1.98
				v-1.91h1.98v-3.31h2.23v3.31h3.43v1.91h-3.43v7.21c0,0.86,0.16,1.44,0.47,1.75c0.31,0.31,0.86,0.47,1.63,0.47H762.51z"/>
			<path style="fill:#1A9A9A;" d="M778.99,139.59c1.01,0.55,1.8,1.34,2.37,2.37c0.57,1.03,0.86,2.24,0.86,3.63
				c0,1.39-0.29,2.59-0.86,3.62c-0.57,1.02-1.36,1.81-2.37,2.36c-1.01,0.55-2.15,0.82-3.42,0.82c-1.27,0-2.42-0.27-3.42-0.82
				c-1.01-0.55-1.8-1.33-2.38-2.36c-0.58-1.02-0.87-2.23-0.87-3.62c0-1.39,0.29-2.6,0.87-3.63c0.58-1.03,1.37-1.82,2.38-2.37
				c1.01-0.55,2.15-0.82,3.42-0.82C776.84,138.76,777.98,139.04,778.99,139.59z M773.38,141.23c-0.67,0.36-1.21,0.9-1.62,1.63
				c-0.41,0.73-0.62,1.64-0.62,2.72c0,1.06,0.21,1.96,0.62,2.7c0.41,0.73,0.95,1.28,1.62,1.63c0.67,0.36,1.4,0.53,2.19,0.53
				c0.79,0,1.52-0.18,2.19-0.53c0.67-0.35,1.21-0.9,1.62-1.63c0.41-0.73,0.62-1.63,0.62-2.7c0-1.08-0.21-1.99-0.62-2.72
				c-0.41-0.73-0.95-1.28-1.62-1.63c-0.67-0.36-1.4-0.53-2.19-0.53C774.78,140.7,774.05,140.88,773.38,141.23z"/>
			<path style="fill:#1A9A9A;" d="M798.17,139.73c0.9,0.65,1.52,1.51,1.87,2.59v-8.01h2.2v17.9h-2.2v-3.39
				c-0.36,1.08-0.98,1.94-1.87,2.59c-0.9,0.65-1.99,0.97-3.28,0.97c-1.18,0-2.23-0.27-3.14-0.82c-0.92-0.55-1.64-1.33-2.17-2.36
				c-0.52-1.02-0.79-2.23-0.79-3.62c0-1.39,0.26-2.6,0.79-3.63c0.52-1.03,1.25-1.82,2.17-2.37c0.92-0.55,1.97-0.82,3.14-0.82
				C796.18,138.76,797.28,139.09,798.17,139.73z M792.27,142.02c-0.82,0.86-1.22,2.05-1.22,3.57s0.41,2.71,1.22,3.57
				c0.81,0.86,1.9,1.29,3.25,1.29c0.87,0,1.65-0.2,2.33-0.6c0.69-0.4,1.22-0.97,1.61-1.71s0.58-1.58,0.58-2.55
				c0-0.97-0.19-1.82-0.58-2.56s-0.92-1.31-1.61-1.71c-0.69-0.39-1.46-0.59-2.33-0.59C794.17,140.72,793.09,141.15,792.27,142.02z"
				/>
			<path style="fill:#1A9A9A;" d="M818.83,139.73c0.9,0.65,1.52,1.51,1.87,2.59v-3.39h2.2v13.28h-2.2v-3.39
				c-0.36,1.08-0.98,1.94-1.87,2.59c-0.9,0.65-1.99,0.97-3.28,0.97c-1.18,0-2.23-0.27-3.14-0.82c-0.92-0.55-1.64-1.33-2.17-2.36
				c-0.52-1.02-0.79-2.23-0.79-3.62c0-1.39,0.26-2.6,0.79-3.63c0.52-1.03,1.25-1.82,2.17-2.37c0.92-0.55,1.97-0.82,3.14-0.82
				C816.84,138.76,817.94,139.09,818.83,139.73z M812.93,142.02c-0.82,0.86-1.22,2.05-1.22,3.57s0.41,2.71,1.22,3.57
				c0.81,0.86,1.9,1.29,3.25,1.29c0.87,0,1.65-0.2,2.33-0.6c0.69-0.4,1.22-0.97,1.61-1.71c0.39-0.73,0.58-1.58,0.58-2.55
				c0-0.97-0.19-1.82-0.58-2.56c-0.39-0.74-0.92-1.31-1.61-1.71c-0.69-0.39-1.46-0.59-2.33-0.59
				C814.83,140.72,813.74,141.15,812.93,142.02z"/>
			<path style="fill:#1A9A9A;" d="M831.69,138.93l4.31,10.45l3.99-10.45h2.44l-7.89,19.57h-2.49l2.76-6.51l-5.59-13.06H831.69z"/>
			<path style="fill:#1A9A9A;" d="M850.41,149.62v2.59h-2.66v-2.59H850.41z"/>
		</g>
	</g>
	<g>
		<path style="fill:#1A9A9A;" d="M74.16,76.56c-15.61,18.17-39.26,52.66-42.99,98.07H15C25.69,134.39,56.13,96.42,74.16,76.56z"/>
		<g>
			<path d="M156.34,16.63l5.27-1.88C159.81,15.35,158.07,15.98,156.34,16.63z"/>
			<path style="fill:#0F6E6E;" d="M43.69,59.16c-10.45,0-18.91-8.47-18.91-18.92c0-10.43,8.47-18.9,18.91-18.9
				c10.45,0,18.92,8.47,18.92,18.9C62.61,50.69,54.14,59.16,43.69,59.16z M36.22,0L0,34.85v139.91h2.58
				C12.93,144.88,56.09,40.6,161.61,14.75c0,0,5.25-1.29,10.06-1.44V0H36.22z"/>
			<path style="fill:#1A9A9A;" d="M169.25,13.47c-3.87,0.37-7.67,1.29-11.34,2.6l-1.57,0.56C71.2,48.72,79.79,146.07,84.33,174.76
				h10.42l76.91-69.34V13.31C170.86,13.34,170.05,13.39,169.25,13.47z"/>
		</g>
	</g>
</g>
<g>
</g>
<g>
</g>
<g>
</g>
<g>
</g>
<g>
</g>
<g>
</g>
<g>
</g>
<g>
</g>
<g>
</g>
<g>
</g>
<g>
</g>
<g>
</g>
<g>
</g>
<g>
</g>
<g>
</g>
</svg>
