<?xml version="1.0" encoding="utf-8"?>
<!-- Generator: Adobe Illustrator 24.3.0, SVG Export Plug-In . SVG Version: 6.00 Build 0)  -->
<svg version="1.1" id="Layer_1" xmlns="http://www.w3.org/2000/svg" xmlns:xlink="http://www.w3.org/1999/xlink" x="0px" y="0px"
	 viewBox="0 0 840.4 191.32" style="enable-background:new 0 0 840.4 191.32;" xml:space="preserve">
<g>
	<g>
		<g>
			<g>
				<path style="fill:#0F6E6E;" d="M263.95,114.92c-6.22-3.58-11-8.7-14.34-15.38c-3.34-6.67-5-14.48-5-23.43
					c0-8.95,1.67-16.74,5-23.37c3.34-6.63,8.12-11.73,14.34-15.32c6.22-3.58,13.48-5.37,21.78-5.37c5.37,0,10.41,0.79,15.13,2.38
					c4.72,1.59,8.91,3.89,12.57,6.9c1.06,0.81,1.79,1.67,2.2,2.56c0.41,0.9,0.61,1.99,0.61,3.3c0,1.79-0.49,3.29-1.46,4.52
					c-0.98,1.22-2.16,1.83-3.54,1.83c-1.63,0-3.3-0.57-5-1.71c-3.5-2.6-6.75-4.41-9.76-5.43c-3.01-1.02-6.35-1.52-10.01-1.52
					c-8.46,0-14.87,2.64-19.22,7.93c-4.35,5.29-6.53,13.06-6.53,23.31c0,10.33,2.18,18.14,6.53,23.43
					c4.35,5.29,10.76,7.93,19.22,7.93c3.5,0,6.73-0.53,9.7-1.59c2.97-1.06,6.33-2.85,10.07-5.37c0.81-0.49,1.63-0.89,2.44-1.22
					c0.81-0.32,1.67-0.49,2.56-0.49c1.38,0,2.56,0.61,3.54,1.83c0.98,1.22,1.46,2.73,1.46,4.52c0,1.22-0.2,2.3-0.61,3.23
					c-0.41,0.94-1.14,1.81-2.2,2.62c-3.66,3.01-7.85,5.31-12.57,6.9c-4.72,1.59-9.76,2.38-15.13,2.38
					C277.44,120.29,270.18,118.5,263.95,114.92z"/>
				<path style="fill:#0F6E6E;" d="M338.64,116.38c-4.6-2.52-8.16-6.14-10.68-10.86c-2.52-4.72-3.78-10.21-3.78-16.48
					c0-6.26,1.26-11.73,3.78-16.41c2.52-4.68,6.08-8.28,10.68-10.8c4.6-2.52,9.95-3.78,16.05-3.78c6.1,0,11.45,1.26,16.05,3.78
					c4.6,2.52,8.13,6.12,10.62,10.8c2.48,4.68,3.72,10.15,3.72,16.41c0,6.27-1.24,11.76-3.72,16.48
					c-2.48,4.72-6.02,8.34-10.62,10.86c-4.6,2.52-9.95,3.78-16.05,3.78C348.59,120.17,343.23,118.91,338.64,116.38z M365.91,103.45
					c2.6-3.25,3.91-8.05,3.91-14.4c0-6.26-1.3-11.04-3.91-14.34c-2.6-3.3-6.35-4.94-11.23-4.94s-8.65,1.65-11.29,4.94
					c-2.64,3.29-3.97,8.07-3.97,14.34c0,6.35,1.3,11.15,3.91,14.4c2.6,3.26,6.35,4.88,11.23,4.88
					C359.53,108.33,363.31,106.7,365.91,103.45z"/>
				<path style="fill:#0F6E6E;" d="M435.96,59.64c1.22,1.06,1.83,2.65,1.83,4.76c0,2.2-0.53,3.83-1.59,4.88
					c-1.06,1.06-2.97,1.75-5.74,2.07l-3.66,0.37c-4.8,0.49-8.32,2.12-10.56,4.88c-2.24,2.77-3.36,6.22-3.36,10.37v25.63
					c0,2.36-0.73,4.17-2.2,5.43c-1.46,1.26-3.29,1.89-5.49,1.89c-2.2,0-4.01-0.63-5.43-1.89c-1.42-1.26-2.14-3.07-2.14-5.43V65.37
					c0-2.28,0.71-4.03,2.14-5.25c1.42-1.22,3.19-1.83,5.31-1.83c2.11,0,3.82,0.59,5.13,1.77c1.3,1.18,1.95,2.87,1.95,5.06v4.88
					c1.54-3.58,3.84-6.35,6.9-8.3c3.05-1.95,6.45-3.05,10.19-3.3l1.71-0.12C433.07,58.13,434.74,58.58,435.96,59.64z"/>
				<path style="fill:#0F6E6E;" d="M495.03,64.15c3.5,4.07,5.25,10.21,5.25,18.43v30.02c0,2.28-0.67,4.07-2.01,5.37
					c-1.34,1.3-3.19,1.95-5.55,1.95c-2.36,0-4.23-0.65-5.61-1.95c-1.38-1.3-2.07-3.09-2.07-5.37V83.43c0-4.64-0.88-8.01-2.62-10.13
					c-1.75-2.11-4.5-3.17-8.24-3.17c-4.39,0-7.91,1.38-10.56,4.15c-2.65,2.77-3.97,6.47-3.97,11.11v27.21
					c0,2.28-0.69,4.07-2.07,5.37c-1.38,1.3-3.26,1.95-5.61,1.95c-2.36,0-4.21-0.65-5.55-1.95c-1.34-1.3-2.01-3.09-2.01-5.37V65.37
					c0-2.11,0.69-3.82,2.07-5.13c1.38-1.3,3.25-1.95,5.61-1.95c2.11,0,3.84,0.63,5.19,1.89c1.34,1.26,2.01,2.91,2.01,4.94v3.3
					c2.03-3.34,4.76-5.9,8.18-7.69c3.42-1.79,7.28-2.68,11.59-2.68C486.2,58.05,491.53,60.08,495.03,64.15z"/>
				<path style="fill:#0F6E6E;" d="M566.36,104.42c0.85,1.06,1.28,2.48,1.28,4.27c0,2.52-1.51,4.64-4.52,6.35
					c-2.77,1.55-5.9,2.79-9.4,3.72c-3.5,0.93-6.83,1.4-10.01,1.4c-9.6,0-17.21-2.76-22.82-8.3c-5.61-5.53-8.42-13.1-8.42-22.7
					c0-6.1,1.22-11.51,3.66-16.23c2.44-4.72,5.88-8.38,10.31-10.98c4.43-2.6,9.46-3.9,15.07-3.9c5.37,0,10.05,1.18,14.03,3.54
					c3.99,2.36,7.08,5.7,9.28,10.01c2.2,4.31,3.29,9.4,3.29,15.26c0,3.5-1.55,5.25-4.64,5.25h-36c0.49,5.61,2.08,9.74,4.76,12.39
					c2.68,2.65,6.59,3.97,11.72,3.97c2.6,0,4.9-0.32,6.9-0.98c1.99-0.65,4.25-1.55,6.77-2.68c2.44-1.3,4.23-1.95,5.37-1.95
					C564.39,102.84,565.51,103.37,566.36,104.42z M531.95,72.69c-2.48,2.6-3.97,6.35-4.45,11.23h27.58
					c-0.16-4.96-1.38-8.73-3.66-11.29c-2.28-2.56-5.45-3.84-9.52-3.84C537.74,68.79,534.43,70.09,531.95,72.69z"/>
				<path style="fill:#0F6E6E;" d="M618.9,59.64c1.22,1.06,1.83,2.65,1.83,4.76c0,2.2-0.53,3.83-1.59,4.88
					c-1.06,1.06-2.97,1.75-5.74,2.07l-3.66,0.37c-4.8,0.49-8.32,2.12-10.56,4.88c-2.24,2.77-3.36,6.22-3.36,10.37v25.63
					c0,2.36-0.73,4.17-2.2,5.43c-1.46,1.26-3.29,1.89-5.49,1.89c-2.2,0-4.01-0.63-5.43-1.89c-1.42-1.26-2.14-3.07-2.14-5.43V65.37
					c0-2.28,0.71-4.03,2.14-5.25c1.42-1.22,3.19-1.83,5.31-1.83c2.11,0,3.82,0.59,5.13,1.77c1.3,1.18,1.95,2.87,1.95,5.06v4.88
					c1.54-3.58,3.84-6.35,6.9-8.3c3.05-1.95,6.45-3.05,10.19-3.3l1.71-0.12C616.01,58.13,617.68,58.58,618.9,59.64z"/>
				<path style="fill:#0F6E6E;" d="M630.67,117.24c-1.34-1.3-2.01-3.13-2.01-5.49V40.6c0-2.36,0.67-4.19,2.01-5.49
					c1.34-1.3,3.19-1.95,5.55-1.95h24.16c14.07,0,25,3.76,32.77,11.29c7.77,7.53,11.65,18.08,11.65,31.67
					c0,13.67-3.89,24.27-11.65,31.79c-7.77,7.53-18.69,11.29-32.77,11.29h-24.16C633.87,119.19,632.02,118.54,630.67,117.24z
					 M659.41,106.38c19.77,0,29.65-10.09,29.65-30.27c0-20.09-9.89-30.14-29.65-30.14H644.4v60.41H659.41z"/>
				<path style="fill:#0F6E6E;" d="M763.69,64.21c4.03,4.11,6.04,10.35,6.04,18.73v29.78c0,2.2-0.65,3.93-1.95,5.19
					c-1.3,1.26-3.09,1.89-5.37,1.89c-2.12,0-3.84-0.65-5.19-1.95c-1.34-1.3-2.01-3.01-2.01-5.13v-2.68
					c-1.38,3.17-3.56,5.66-6.53,7.44c-2.97,1.79-6.41,2.68-10.31,2.68c-3.99,0-7.61-0.81-10.86-2.44c-3.25-1.63-5.82-3.86-7.69-6.71
					c-1.87-2.85-2.81-6.02-2.81-9.52c0-4.39,1.12-7.85,3.36-10.37c2.24-2.52,5.88-4.35,10.92-5.49c5.04-1.14,12-1.71,20.87-1.71
					h3.05v-2.81c0-3.98-0.85-6.9-2.56-8.73c-1.71-1.83-4.48-2.75-8.3-2.75c-2.36,0-4.76,0.35-7.2,1.04
					c-2.44,0.69-5.33,1.69-8.66,2.99c-2.12,1.06-3.66,1.59-4.64,1.59c-1.46,0-2.67-0.53-3.6-1.59c-0.94-1.06-1.4-2.44-1.4-4.15
					c0-1.38,0.35-2.58,1.04-3.6c0.69-1.02,1.85-1.97,3.48-2.87c2.85-1.54,6.24-2.76,10.19-3.66c3.95-0.89,7.83-1.34,11.65-1.34
					C753.5,58.05,759.67,60.11,763.69,64.21z M751.37,105.1c2.56-2.73,3.84-6.24,3.84-10.56v-2.56h-2.2
					c-5.45,0-9.68,0.24-12.69,0.73c-3.01,0.49-5.17,1.34-6.47,2.56c-1.3,1.22-1.95,2.89-1.95,5c0,2.6,0.92,4.74,2.75,6.41
					c1.83,1.67,4.09,2.5,6.77,2.5C745.49,109.18,748.81,107.82,751.37,105.1z"/>
				<path style="fill:#0F6E6E;" d="M829.47,59.45c1.1-0.69,2.3-1.04,3.6-1.04c1.87,0,3.56,0.63,5.06,1.89
					c1.5,1.26,2.26,2.83,2.26,4.7c0,0.9-0.24,1.83-0.73,2.81l-33.32,69.81c-1.38,2.77-3.54,4.15-6.47,4.15
					c-1.87,0-3.52-0.59-4.94-1.77c-1.42-1.18-2.14-2.67-2.14-4.45c0-0.9,0.24-1.91,0.73-3.05l8.3-17.45l-22.7-47.23
					c-0.41-0.81-0.61-1.75-0.61-2.81c0-1.87,0.79-3.46,2.38-4.76c1.59-1.3,3.4-1.95,5.43-1.95c1.38,0,2.64,0.35,3.78,1.04
					c1.14,0.69,2.03,1.77,2.68,3.23l17.09,37.71l16.96-37.59C827.5,61.22,828.37,60.15,829.47,59.45z"/>
			</g>
		</g>
		<g>
			<path style="fill:#A8D8D0;" d="M199.49,35.11c-0.15,0.08-0.3,0.15-0.45,0.23c-0.07,0.04-0.14,0.07-0.21,0.1
				c-0.27,0.12-0.55,0.25-0.83,0.37c-0.07,0.03-0.13,0.05-0.2,0.08c-0.21,0.09-0.43,0.18-0.64,0.26c-0.1,0.04-0.19,0.07-0.29,0.11
				c-0.2,0.07-0.4,0.15-0.59,0.21c-0.1,0.04-0.19,0.07-0.29,0.1c-0.23,0.08-0.46,0.15-0.7,0.23c-0.06,0.01-0.12,0.04-0.17,0.05
				c-0.29,0.09-0.58,0.17-0.87,0.25c-0.08,0.02-0.16,0.04-0.24,0.06c-0.22,0.06-0.43,0.11-0.65,0.16c-0.1,0.02-0.21,0.04-0.3,0.07
				c-0.21,0.04-0.42,0.09-0.62,0.12c-0.1,0.02-0.19,0.04-0.29,0.06c-0.26,0.05-0.53,0.1-0.79,0.13c-0.04,0.01-0.07,0.01-0.11,0.01
				c-0.3,0.05-0.6,0.09-0.9,0.12c-0.09,0.01-0.18,0.02-0.27,0.03c-0.22,0.02-0.43,0.04-0.65,0.06c-0.11,0.01-0.21,0.02-0.32,0.03
				c-0.22,0.01-0.43,0.02-0.65,0.03c-0.1,0.01-0.19,0.01-0.29,0.01c-0.31,0.01-0.62,0.01-0.92,0.01
				c-14.99,0-27.19-12.19-27.19-27.19c0-0.25,0.01-0.5,0.02-0.75h6.76C182.36,10.08,195.6,20.42,199.49,35.11z"/>
			<path style="fill:#0F6E6E;" d="M210.71,127.79V43.88c0-2.37-0.19-4.74-0.56-7.04c-0.01,0-0.01-0.01-0.01-0.01v-0.01
				c0,0,0,0,0-0.01c-0.82-5.08-2.54-9.95-5.04-14.39c-2.49-4.45-5.76-8.46-9.69-11.83C187.47,3.76,177.32,0,166.83,0H63.27
				C39.08,0,19.4,19.68,19.4,43.88v39.4C9.48,87.32,3.49,92.03,1.12,97.64c-1.62,3.85-1.48,8.08,0.4,12.22
				c2.33,5.14,8.78,10.79,20.3,17.81c6.16,3.75,13.57,7.75,21.87,11.89c0.04,0.02,0.09,0.04,0.14,0.07
				c2.59,1.29,5.28,2.59,8.03,3.91c0.04,0.02,0.08,0.04,0.12,0.06c2.76,1.33,5.6,2.65,8.5,3.99c0.04,0.01,0.1,0.04,0.14,0.06
				c0.93,0.43,1.87,0.86,2.81,1.29c0.04,0.02,0.07,0.04,0.11,0.05c1.96,0.89,3.94,1.79,5.96,2.69c0.06,0.02,0.11,0.05,0.17,0.07
				c0.94,0.42,1.88,0.84,2.83,1.25c0.08,0.04,0.17,0.08,0.25,0.12c2.01,0.89,4.04,1.78,6.1,2.67c0.07,0.04,0.15,0.07,0.22,0.1
				c0.93,0.4,1.86,0.81,2.8,1.21c0.14,0.07,0.27,0.12,0.41,0.18c2.04,0.88,4.1,1.76,6.17,2.63c0.1,0.04,0.2,0.09,0.29,0.12
				c0.91,0.39,1.82,0.77,2.73,1.16c0.2,0.08,0.4,0.17,0.6,0.25c0.93,0.4,1.86,0.78,2.8,1.17c0.08,0.04,0.15,0.07,0.23,0.1
				c1.04,0.43,2.09,0.86,3.14,1.3c0.12,0.05,0.26,0.1,0.39,0.16c0.88,0.36,1.76,0.73,2.65,1.09c0.25,0.1,0.5,0.21,0.75,0.31
				c0.83,0.34,1.66,0.68,2.48,1.03c0.21,0.08,0.4,0.16,0.6,0.24c1.02,0.42,2.03,0.83,3.05,1.25c0.16,0.07,0.32,0.12,0.48,0.19
				c0.85,0.34,1.71,0.7,2.56,1.04c0.29,0.12,0.59,0.23,0.88,0.35c0.76,0.31,1.52,0.62,2.28,0.92c0.27,0.11,0.54,0.22,0.81,0.33
				c1,0.4,1.99,0.79,2.98,1.19c0.18,0.07,0.35,0.14,0.53,0.21c0.83,0.34,1.66,0.67,2.48,1c0.33,0.13,0.66,0.26,0.99,0.39
				c0.7,0.28,1.38,0.56,2.08,0.83c0.34,0.13,0.67,0.26,1.01,0.4c0.94,0.37,1.88,0.74,2.81,1.11c0.17,0.07,0.34,0.13,0.5,0.2
				c0.86,0.34,1.71,0.67,2.55,1c0.35,0.13,0.7,0.27,1.06,0.41c0.66,0.26,1.33,0.52,1.99,0.78c0.35,0.14,0.7,0.27,1.06,0.41
				c0.81,0.32,1.6,0.62,2.4,0.93c0.18,0.07,0.37,0.15,0.55,0.21c0.95,0.37,1.91,0.74,2.85,1.11c0.11,0.04,0.22,0.09,0.33,0.12H63.27
				c-18.63,0-33.79-15.16-33.79-33.79v-6.76l-10.08-5.94v12.7c0,24.2,19.68,43.88,43.88,43.88h103.56c0.69,0,1.36-0.01,2-0.05h0.06
				c0.01,0,0.01,0,0.01,0c11.72-0.54,22.17-5.63,29.7-13.51c7.53-7.88,12.11-18.57,12.11-30.31v-8.15h-0.1
				c-0.34-1.8-1.66-3.34-3.52-3.89c-28.94-8.49-59.91-17.78-90.29-28.26c-2.81-0.97-5.5-2.08-6.13-3.66
				c-0.84-2.07,0.42-5.63,2.36-6.7c6.72-3.69,16.62-6.55,26.19-9.31c16.18-4.68,28.96-8.36,31.31-16.73
				c0.72-2.54,0.7-6.52-3.41-11.04c-4.84-5.28-14.85-10.14-30.61-14.85c-11.89-3.55-27.08-7.03-45.14-10.31
				C66.31,30,42.5,27.05,34.53,26.12c5.96-9.61,16.61-16.03,28.74-16.03h86.71c-0.01,0.25-0.01,0.5-0.01,0.75
				c0,20.55,16.72,37.28,37.27,37.28c0.42,0,0.83-0.01,1.25-0.02c0.08,0,0.17-0.01,0.26-0.01c0.4-0.01,0.81-0.04,1.2-0.07
				c0.07-0.01,0.14-0.01,0.21-0.02c0.37-0.02,0.73-0.06,1.1-0.1c0.07-0.01,0.13-0.01,0.2-0.02c0.4-0.04,0.79-0.1,1.18-0.15
				c0.09-0.01,0.18-0.03,0.26-0.04c0.4-0.07,0.81-0.13,1.2-0.21c0.01,0,0.03-0.01,0.04-0.01c0.39-0.07,0.78-0.15,1.16-0.23
				c0.09-0.02,0.17-0.04,0.26-0.06c0.38-0.09,0.77-0.18,1.15-0.28c0.07-0.02,0.14-0.04,0.21-0.06c0.35-0.1,0.7-0.2,1.06-0.3
				c0.05-0.01,0.11-0.03,0.17-0.05c0.38-0.12,0.75-0.23,1.13-0.37c0.09-0.03,0.17-0.06,0.26-0.09c0.37-0.12,0.74-0.26,1.11-0.4
				v79.23L210.71,127.79z M29.48,58.83c1.89,0.31,3.93,0.63,6.12,0.97c0.01,0.01,0.02,0.01,0.03,0.01c1.08,0.17,2.18,0.34,3.31,0.53
				c0.04,0,0.08,0.01,0.12,0.01c1.11,0.18,2.26,0.36,3.44,0.54c0.06,0.01,0.12,0.02,0.18,0.03c0.58,0.09,1.16,0.18,1.75,0.27
				c0.04,0.01,0.07,0.01,0.11,0.02c0.58,0.09,1.16,0.18,1.75,0.27c0.05,0.01,0.1,0.01,0.15,0.02c0.62,0.1,1.26,0.2,1.9,0.3
				c0.01,0,0.04,0,0.05,0.01c0.64,0.1,1.3,0.2,1.96,0.3c0.01,0.01,0.02,0.01,0.04,0.01c0.64,0.1,1.29,0.2,1.94,0.3
				c0.09,0.01,0.18,0.03,0.26,0.04c0.64,0.1,1.28,0.2,1.93,0.3h0.02c0.64,0.1,1.3,0.2,1.96,0.3c0.13,0.02,0.27,0.04,0.41,0.07
				c0.65,0.1,1.3,0.2,1.96,0.3c7.36,1.14,13.54,1.99,18.99,2.73c3.34,0.46,6.62,0.92,9.56,1.36c0.35,0.05,0.7,0.11,1.04,0.16
				c0.13,0.02,0.26,0.04,0.4,0.06c0.47,0.07,0.92,0.15,1.37,0.23c-3.44,0.61-7.36,1.24-11.04,1.82c-0.52,0.08-1.04,0.17-1.56,0.25
				c-0.8,0.12-1.61,0.26-2.43,0.38c-0.18,0.03-0.37,0.06-0.55,0.09c-0.84,0.13-1.67,0.27-2.52,0.4c-0.17,0.03-0.33,0.06-0.5,0.08
				c-0.86,0.14-1.74,0.28-2.62,0.42c-0.12,0.02-0.23,0.04-0.35,0.06c-0.87,0.14-1.75,0.29-2.63,0.43c-0.07,0.01-0.14,0.02-0.21,0.04
				c-0.89,0.15-1.8,0.3-2.7,0.45c-0.17,0.03-0.34,0.06-0.51,0.09c-0.88,0.15-1.77,0.3-2.66,0.46c-0.17,0.03-0.33,0.06-0.5,0.09
				c-0.92,0.16-1.83,0.32-2.76,0.49c-0.08,0.01-0.17,0.03-0.25,0.04c-0.89,0.17-1.8,0.34-2.69,0.51c-0.11,0.02-0.23,0.04-0.34,0.07
				c-0.9,0.17-1.81,0.34-2.72,0.53c-0.18,0.03-0.34,0.07-0.52,0.1c-0.89,0.18-1.79,0.36-2.68,0.54c-0.15,0.04-0.31,0.07-0.45,0.1
				c-0.94,0.2-1.87,0.4-2.79,0.6c-0.02,0-0.04,0.01-0.07,0.01c-0.92,0.2-1.82,0.4-2.73,0.61c-0.14,0.04-0.28,0.07-0.42,0.1
				c-0.88,0.2-1.75,0.41-2.62,0.62c-0.17,0.04-0.33,0.08-0.5,0.12c-0.87,0.22-1.74,0.43-2.59,0.66c-0.12,0.03-0.23,0.07-0.36,0.1
				c-0.86,0.23-1.72,0.45-2.57,0.7c-0.04,0.01-0.09,0.02-0.13,0.04c-0.86,0.23-1.71,0.48-2.54,0.73c-0.09,0.02-0.18,0.05-0.26,0.07
				V58.83z M89.62,44.49c52.07,9.47,66.24,17.88,70.06,22.04c0.78,0.85,1.03,1.37,1.1,1.58c-0.24,0.4-1.47,1.88-6.86,4.08
				c-4.75,1.93-10.94,3.72-17.5,5.61c-10.1,2.91-20.54,5.93-28.25,10.16c-6.39,3.51-9.59,12.53-6.85,19.31
				c2.44,6.05,8.79,8.24,12.2,9.42c29.31,10.1,59.1,19.1,87.11,27.33v3.43c0,17.77-13.64,32.38-31.22,33.7
				c-0.12-0.04-0.23-0.09-0.35-0.13c-0.48-0.18-0.96-0.36-1.44-0.54c-0.23-0.09-0.45-0.17-0.67-0.25c-0.64-0.24-1.3-0.49-1.95-0.73
				c-0.06-0.02-0.11-0.04-0.17-0.07c-0.7-0.26-1.41-0.53-2.13-0.8c-0.23-0.09-0.48-0.18-0.72-0.27c-0.47-0.18-0.95-0.36-1.42-0.54
				c-0.29-0.1-0.57-0.21-0.86-0.32c-0.44-0.17-0.89-0.34-1.33-0.51c-0.29-0.11-0.57-0.22-0.86-0.33c-0.46-0.18-0.92-0.35-1.39-0.53
				c-0.28-0.1-0.55-0.21-0.83-0.32c-0.67-0.26-1.36-0.51-2.04-0.78c-0.21-0.08-0.43-0.17-0.64-0.25c-0.53-0.2-1.06-0.4-1.6-0.61
				c-0.33-0.12-0.67-0.26-1-0.39c-0.4-0.15-0.79-0.3-1.19-0.45c-0.35-0.14-0.71-0.27-1.07-0.41c-0.38-0.15-0.76-0.29-1.15-0.44
				c-0.36-0.15-0.73-0.29-1.09-0.43c-0.37-0.15-0.75-0.29-1.13-0.43c-0.37-0.15-0.75-0.29-1.13-0.44c-0.29-0.12-0.59-0.23-0.89-0.34
				c-0.8-0.32-1.6-0.62-2.41-0.94c-0.31-0.12-0.62-0.24-0.92-0.36c-0.43-0.17-0.86-0.34-1.3-0.51c-0.31-0.12-0.62-0.24-0.93-0.37
				c-0.44-0.17-0.87-0.34-1.31-0.51c-0.29-0.11-0.57-0.22-0.86-0.33c-0.48-0.19-0.95-0.37-1.42-0.56c-0.18-0.07-0.36-0.14-0.53-0.21
				c-1.77-0.7-3.55-1.4-5.33-2.11c-0.15-0.06-0.31-0.12-0.46-0.18c-0.55-0.21-1.1-0.43-1.65-0.65c-0.18-0.07-0.36-0.14-0.53-0.21
				c-0.56-0.22-1.11-0.44-1.66-0.66c-0.15-0.06-0.29-0.12-0.43-0.17c-2.58-1.03-5.17-2.07-7.75-3.12c-0.07-0.03-0.15-0.06-0.22-0.09
				c-0.62-0.25-1.24-0.5-1.85-0.75c-0.09-0.03-0.17-0.07-0.25-0.1c-23.81-9.68-47.14-19.8-65.64-29.11
				c-3.75-1.89-7.3-3.74-10.61-5.55c-3.32-1.8-6.4-3.58-9.21-5.28c-12.85-7.83-15.73-11.95-16.36-13.37
				c-0.93-2.05-0.64-3.3-0.29-4.15c0.81-1.93,3.94-5.8,15.74-10.07c15.04-5.45,37.01-8.93,53.06-11.48
				c7.01-1.11,13.07-2.07,17.54-3.01c5.8-1.22,10.3-2.48,11.12-6.68c0.57-2.95-0.39-5.09-1.3-6.35c-2.69-3.77-7.79-5-19.87-6.74
				c-2.23-0.33-4.71-0.67-7.46-1.05c-0.67-0.09-1.36-0.18-2.06-0.29c-4.9-0.67-10.4-1.44-16.77-2.43c-0.69-0.1-1.38-0.21-2.06-0.32
				c-0.16-0.02-0.32-0.05-0.48-0.07c-0.62-0.1-1.24-0.19-1.85-0.29c-0.21-0.03-0.42-0.07-0.63-0.1c-0.47-0.07-0.94-0.15-1.4-0.22
				c-0.33-0.05-0.66-0.1-0.99-0.15c-0.4-0.06-0.79-0.12-1.19-0.18c-0.25-0.04-0.51-0.08-0.76-0.12c-0.49-0.08-0.97-0.15-1.45-0.23
				c-0.32-0.05-0.63-0.1-0.95-0.15c-0.29-0.04-0.59-0.1-0.88-0.14c-0.46-0.07-0.92-0.14-1.37-0.21c-0.25-0.04-0.5-0.08-0.74-0.12
				c-0.4-0.06-0.79-0.12-1.19-0.18c-0.33-0.05-0.66-0.1-0.99-0.15c-0.35-0.06-0.7-0.11-1.04-0.17c-0.08-0.01-0.16-0.02-0.24-0.04
				c-0.63-0.1-1.25-0.2-1.86-0.29c-0.13-0.02-0.26-0.04-0.39-0.06c-0.54-0.09-1.08-0.18-1.6-0.26c-0.16-0.02-0.32-0.05-0.48-0.07
				c-0.27-0.04-0.53-0.09-0.81-0.13c-0.23-0.04-0.48-0.07-0.71-0.11c-0.38-0.06-0.76-0.12-1.14-0.18c-0.21-0.03-0.43-0.07-0.63-0.1
				c-0.92-0.15-1.8-0.29-2.65-0.42c-0.03-0.01-0.06-0.01-0.08-0.01c-0.59-0.1-1.17-0.18-1.73-0.27c-0.01-0.01-0.03-0.01-0.04-0.01
				c-0.21-0.04-0.41-0.07-0.61-0.1v-4.74c0-2.79,0.34-5.5,0.98-8.09c0.06,0.01,0.12,0.02,0.18,0.02
				C30.92,35.85,59.36,38.98,89.62,44.49z M199.03,35.34c-0.07,0.04-0.14,0.07-0.21,0.1c-0.27,0.12-0.55,0.25-0.83,0.37
				c-0.07,0.03-0.13,0.05-0.2,0.08c-0.21,0.09-0.43,0.18-0.64,0.26c-0.1,0.04-0.19,0.07-0.29,0.11c-0.2,0.07-0.4,0.15-0.59,0.21
				c-0.1,0.04-0.19,0.07-0.29,0.1c-0.23,0.08-0.46,0.15-0.7,0.23c-0.06,0.01-0.12,0.04-0.17,0.05c-0.29,0.09-0.58,0.17-0.87,0.25
				c-0.08,0.02-0.16,0.04-0.24,0.06c-0.22,0.06-0.43,0.11-0.65,0.16c-0.1,0.02-0.21,0.04-0.3,0.07c-0.21,0.04-0.42,0.09-0.62,0.12
				c-0.1,0.02-0.19,0.04-0.29,0.06c-0.26,0.05-0.53,0.1-0.79,0.13c-0.04,0.01-0.07,0.01-0.11,0.01c-0.3,0.05-0.6,0.09-0.9,0.12
				c-0.09,0.01-0.18,0.02-0.27,0.03c-0.22,0.02-0.43,0.04-0.65,0.06c-0.11,0.01-0.21,0.02-0.32,0.03c-0.22,0.01-0.43,0.02-0.65,0.03
				c-0.1,0.01-0.19,0.01-0.29,0.01c-0.31,0.01-0.62,0.01-0.92,0.01c-14.99,0-27.19-12.19-27.19-27.19c0-0.25,0.01-0.5,0.02-0.75
				h6.76c15.53,0,28.76,10.34,32.65,25.03C199.33,35.19,199.19,35.27,199.03,35.34z"/>
		</g>
	</g>
	<g>
		<polygon style="fill:#0F6E6E;" points="249.45,143.74 253.34,143.74 253.34,156.1 255.84,156.1 255.84,143.74 259.74,143.74 
			259.74,141.58 249.45,141.58 		"/>
		<path style="fill:#0F6E6E;" d="M270.33,144.46c-0.98,0-1.86,0.26-2.62,0.76c-0.35,0.24-0.65,0.52-0.91,0.85v-5.18h-2.49v15.21
			h2.49v-6.06c0-1.12,0.26-1.97,0.79-2.53c0.52-0.56,1.21-0.84,2.09-0.84c0.85,0,1.49,0.25,1.98,0.75c0.48,0.5,0.72,1.25,0.72,2.22
			v6.45h2.49v-6.6c0-1.6-0.42-2.86-1.25-3.72C272.79,144.91,271.68,144.46,270.33,144.46z"/>
		<path style="fill:#0F6E6E;" d="M290.95,150.82c0.06-0.3,0.08-0.65,0.08-1.05c0-0.96-0.22-1.85-0.66-2.64
			c-0.44-0.8-1.09-1.44-1.92-1.92c-0.83-0.47-1.81-0.71-2.91-0.71c-1.09,0-2.07,0.24-2.92,0.71c-0.85,0.48-1.53,1.17-2.01,2.06
			c-0.48,0.88-0.72,1.93-0.72,3.11c0,1.18,0.24,2.22,0.72,3.1c0.48,0.88,1.16,1.58,2.01,2.05c0.85,0.47,1.83,0.71,2.92,0.71
			c0.95,0,1.81-0.18,2.58-0.52c0.77-0.35,1.4-0.85,1.89-1.48c0.48-0.63,0.8-1.35,0.94-2.15l0.07-0.42h-2.62l-0.05,0.29
			c-0.11,0.65-0.42,1.15-0.93,1.53c-0.52,0.39-1.17,0.59-1.95,0.59c-0.87,0-1.58-0.27-2.18-0.83c-0.52-0.48-0.82-1.2-0.91-2.14h8.52
			L290.95,150.82z M288.53,149.54h-6.14c0.1-0.89,0.41-1.58,0.93-2.06c0.6-0.55,1.33-0.82,2.23-0.82c0.55,0,1.07,0.12,1.55,0.35
			c0.46,0.23,0.81,0.57,1.08,1.05C288.4,148.47,288.52,148.96,288.53,149.54z"/>
		<path style="fill:#0F6E6E;" d="M313.13,146.28c-0.27-0.35-0.58-0.66-0.95-0.93c-0.78-0.56-1.75-0.85-2.86-0.85
			c-1.01,0-1.93,0.24-2.73,0.72c-0.8,0.48-1.43,1.17-1.89,2.07c-0.45,0.88-0.68,1.92-0.68,3.1c0,1.18,0.23,2.22,0.68,3.09
			c0.45,0.89,1.09,1.58,1.89,2.05c0.8,0.48,1.71,0.72,2.73,0.72c1.12,0,2.08-0.29,2.86-0.85c0.37-0.27,0.69-0.58,0.95-0.93v1.64
			h2.49V140.9h-2.49V146.28z M312.7,152.28c-0.28,0.54-0.67,0.95-1.17,1.24c-0.5,0.29-1.07,0.44-1.71,0.44c-1,0-1.78-0.31-2.38-0.94
			c-0.59-0.63-0.89-1.52-0.89-2.64c0-1.13,0.3-2.02,0.89-2.65c0.59-0.63,1.37-0.94,2.38-0.94c0.64,0,1.22,0.15,1.71,0.43
			c0.5,0.29,0.88,0.69,1.17,1.24c0.29,0.55,0.43,1.19,0.43,1.91C313.13,151.1,312.98,151.74,312.7,152.28z"/>
		<path style="fill:#0F6E6E;" d="M329.86,146.28c-0.27-0.35-0.58-0.66-0.95-0.93h0c-0.78-0.56-1.75-0.85-2.86-0.85
			c-1.01,0-1.93,0.24-2.73,0.72c-0.8,0.48-1.44,1.17-1.89,2.07c-0.45,0.88-0.67,1.93-0.67,3.1c0,1.17,0.23,2.21,0.68,3.09
			c0.45,0.89,1.09,1.58,1.89,2.05c0.8,0.48,1.71,0.72,2.73,0.72c1.12,0,2.08-0.29,2.86-0.85c0.37-0.27,0.69-0.58,0.95-0.93v1.64
			h2.49v-11.46h-2.49V146.28z M329.43,152.28c-0.29,0.54-0.67,0.95-1.17,1.24c-0.5,0.29-1.07,0.44-1.71,0.44
			c-1,0-1.78-0.31-2.38-0.94c-0.59-0.63-0.89-1.52-0.89-2.64c0-1.13,0.3-2.02,0.89-2.65c0.59-0.63,1.37-0.94,2.38-0.94
			c0.64,0,1.22,0.15,1.71,0.43c0.5,0.29,0.88,0.69,1.17,1.24c0.29,0.55,0.43,1.19,0.43,1.91
			C329.86,151.1,329.71,151.74,329.43,152.28z"/>
		<polygon style="fill:#0F6E6E;" points="342.58,152.49 339.34,144.64 336.57,144.64 341.24,155.57 338.86,161.2 341.66,161.2 
			348.33,144.64 345.58,144.64 		"/>
		<polygon style="fill:#0F6E6E;" points="365.54,152.49 362.3,144.64 359.53,144.64 364.2,155.57 361.82,161.2 364.61,161.2 
			371.29,144.64 368.54,144.64 		"/>
		<path style="fill:#0F6E6E;" d="M383.73,145.21L383.73,145.21c-0.87-0.47-1.86-0.71-2.94-0.71c-1.09,0-2.08,0.24-2.94,0.71
			c-0.87,0.47-1.57,1.17-2.07,2.06c-0.5,0.89-0.75,1.93-0.75,3.11c0,1.18,0.25,2.23,0.75,3.1c0.5,0.88,1.2,1.57,2.07,2.05
			c0.86,0.47,1.85,0.71,2.94,0.71c1.09,0,2.08-0.24,2.94-0.71c0.87-0.48,1.57-1.16,2.06-2.05c0.49-0.88,0.74-1.92,0.74-3.1
			c0-1.18-0.25-2.22-0.74-3.11C385.3,146.38,384.6,145.69,383.73,145.21z M384.02,150.38c0,0.8-0.15,1.47-0.45,2.01
			c-0.3,0.53-0.69,0.93-1.17,1.18c-0.97,0.52-2.24,0.52-3.21,0c-0.48-0.25-0.87-0.65-1.17-1.18c-0.3-0.54-0.45-1.21-0.45-2.01
			c0-0.81,0.15-1.49,0.45-2.03c0.3-0.53,0.69-0.93,1.17-1.18c0.97-0.52,2.24-0.52,3.21,0c0.48,0.26,0.87,0.64,1.17,1.18
			C383.86,148.89,384.02,149.57,384.02,150.38z"/>
		<path style="fill:#0F6E6E;" d="M399.45,150.72c0,1.12-0.26,1.97-0.79,2.53c-0.52,0.56-1.21,0.84-2.09,0.84
			c-0.85,0-1.49-0.25-1.97-0.76c-0.48-0.51-0.73-1.26-0.73-2.23v-6.45h-2.49v6.62c0,1.59,0.42,2.84,1.25,3.7
			c0.84,0.87,1.94,1.31,3.27,1.31c0.99,0,1.88-0.25,2.63-0.75c0.35-0.23,0.65-0.51,0.91-0.84v1.42h2.49v-11.46h-2.49V150.72z"/>
		<path style="fill:#0F6E6E;" d="M419.31,153.55c-0.13-0.13-0.28-0.43-0.28-1.17v-5.48h2.78v-2.26h-2.78v-2.68h-2.51v2.68h-1.61
			v2.26h1.61v5.44c0,1.32,0.31,2.29,0.92,2.88c0.61,0.59,1.52,0.88,2.71,0.88h1.69v-2.28h-1.45
			C419.86,153.83,419.49,153.73,419.31,153.55z"/>
		<path style="fill:#0F6E6E;" d="M434.59,150.72c0,1.12-0.26,1.97-0.79,2.53c-0.52,0.56-1.21,0.84-2.09,0.84
			c-0.85,0-1.49-0.25-1.97-0.76c-0.48-0.51-0.73-1.26-0.73-2.23v-6.45h-2.49v6.62c0,1.59,0.42,2.84,1.26,3.7
			c0.84,0.87,1.94,1.31,3.27,1.31c0.99,0,1.88-0.25,2.64-0.75c0.35-0.23,0.65-0.51,0.91-0.84v1.42h2.49v-11.46h-2.49V150.72z"/>
		<path style="fill:#0F6E6E;" d="M446.26,145.13c-0.38,0.23-0.72,0.51-1.01,0.84v-1.34h-2.49v11.46h2.49v-6.02
			c0-1.07,0.28-1.84,0.83-2.28c0.57-0.46,1.33-0.69,2.24-0.69h0.91v-2.65h-0.36C447.88,144.46,447,144.69,446.26,145.13z"/>
		<path style="fill:#0F6E6E;" d="M459.83,144.46c-0.98,0-1.86,0.26-2.62,0.76c-0.35,0.24-0.65,0.52-0.91,0.85v-1.44h-2.49v11.46
			h2.49v-6.06c0-1.12,0.26-1.97,0.79-2.53c0.52-0.56,1.21-0.84,2.09-0.84c0.85,0,1.49,0.25,1.98,0.75c0.48,0.5,0.72,1.25,0.72,2.22
			v6.45h2.49v-6.6c0-1.6-0.42-2.86-1.25-3.72C462.28,144.91,461.17,144.46,459.83,144.46z"/>
		<path style="fill:#0F6E6E;" d="M478.43,140.78L478.43,140.78c-0.3,0.27-0.45,0.63-0.45,1.06c0,0.43,0.15,0.78,0.45,1.06
			c0.29,0.26,0.67,0.4,1.12,0.4c0.45,0,0.83-0.13,1.12-0.4c0.3-0.27,0.45-0.63,0.45-1.06c0-0.43-0.15-0.78-0.45-1.06
			C480.09,140.26,479.01,140.26,478.43,140.78z"/>
		<rect x="478.29" y="144.64" style="fill:#0F6E6E;" width="2.49" height="11.46"/>
		<path style="fill:#0F6E6E;" d="M489.78,153.55c-0.13-0.13-0.28-0.43-0.28-1.17v-5.48h2.78v-2.26h-2.78v-2.68h-2.51v2.68h-1.61
			v2.26h1.61v5.44c0,1.32,0.31,2.29,0.92,2.88c0.61,0.59,1.52,0.88,2.71,0.88h1.69v-2.28h-1.45
			C490.33,153.83,489.96,153.73,489.78,153.55z"/>
		<path style="fill:#0F6E6E;" d="M514.24,146.28c-0.27-0.35-0.58-0.66-0.95-0.93h0c-0.78-0.56-1.75-0.85-2.86-0.85
			c-1.01,0-1.93,0.24-2.73,0.72c-0.8,0.48-1.44,1.17-1.89,2.07c-0.45,0.88-0.67,1.93-0.67,3.1c0,1.17,0.23,2.21,0.68,3.09
			c0.45,0.89,1.09,1.58,1.89,2.05c0.8,0.48,1.71,0.72,2.73,0.72c1.12,0,2.08-0.29,2.86-0.85c0.37-0.27,0.69-0.58,0.95-0.93v1.64
			h2.49v-11.46h-2.49V146.28z M513.81,152.28c-0.28,0.54-0.67,0.95-1.17,1.24c-0.5,0.29-1.07,0.44-1.71,0.44
			c-1,0-1.78-0.31-2.38-0.94c-0.59-0.63-0.89-1.52-0.89-2.64c0-1.13,0.3-2.02,0.89-2.65c0.59-0.63,1.37-0.94,2.38-0.94
			c0.64,0,1.22,0.15,1.71,0.43c0.5,0.29,0.88,0.69,1.17,1.24c0.29,0.55,0.43,1.19,0.43,1.91
			C514.24,151.1,514.09,151.74,513.81,152.28z"/>
		<path style="fill:#0F6E6E;" d="M525.89,145.13L525.89,145.13c-0.38,0.23-0.72,0.51-1.01,0.84v-1.34h-2.49v11.46h2.49v-6.02
			c0-1.07,0.28-1.84,0.83-2.28c0.57-0.46,1.33-0.69,2.24-0.69h0.9v-2.65h-0.36C527.5,144.46,526.62,144.69,525.89,145.13z"/>
		<path style="fill:#0F6E6E;" d="M541.61,145.21L541.61,145.21c-0.87-0.47-1.86-0.71-2.94-0.71s-2.08,0.24-2.94,0.71
			c-0.87,0.47-1.57,1.17-2.07,2.06c-0.5,0.89-0.75,1.93-0.75,3.11c0,1.18,0.25,2.23,0.75,3.1c0.5,0.88,1.2,1.57,2.07,2.05
			c0.86,0.47,1.85,0.71,2.94,0.71c1.09,0,2.08-0.24,2.94-0.71c0.87-0.48,1.57-1.16,2.06-2.05c0.49-0.88,0.74-1.92,0.74-3.1
			c0-1.18-0.25-2.22-0.74-3.11C543.18,146.38,542.48,145.69,541.61,145.21z M541.9,150.38c0,0.8-0.15,1.47-0.45,2.01
			c-0.3,0.53-0.69,0.93-1.17,1.18c-0.97,0.52-2.24,0.52-3.21,0c-0.48-0.25-0.87-0.65-1.17-1.18c-0.3-0.54-0.45-1.21-0.45-2.01
			c0-0.81,0.15-1.49,0.45-2.03c0.3-0.53,0.69-0.93,1.17-1.18c0.49-0.26,1.03-0.39,1.61-0.39c0.58,0,1.12,0.13,1.61,0.39
			c0.48,0.25,0.87,0.65,1.17,1.18C541.74,148.89,541.9,149.57,541.9,150.38z"/>
		<path style="fill:#0F6E6E;" d="M557.33,150.72c0,1.12-0.26,1.97-0.79,2.53c-0.52,0.56-1.21,0.84-2.09,0.84
			c-0.85,0-1.49-0.25-1.97-0.76c-0.48-0.51-0.73-1.26-0.73-2.23v-6.45h-2.49v6.62c0,1.59,0.42,2.84,1.25,3.7
			c0.84,0.87,1.94,1.31,3.27,1.31c0.99,0,1.88-0.25,2.63-0.75c0.35-0.23,0.65-0.51,0.91-0.84v1.42h2.49v-11.46h-2.49V150.72z"/>
		<path style="fill:#0F6E6E;" d="M571.52,144.46c-0.98,0-1.86,0.26-2.62,0.76c-0.35,0.24-0.65,0.52-0.91,0.85v-1.44h-2.49v11.46
			h2.49v-6.06c0-1.12,0.26-1.97,0.79-2.53c0.52-0.56,1.21-0.84,2.09-0.84c0.85,0,1.49,0.25,1.98,0.75c0.48,0.5,0.72,1.25,0.72,2.22
			v6.45h2.49v-6.6c0-1.6-0.42-2.86-1.25-3.72C573.97,144.91,572.87,144.46,571.52,144.46z"/>
		<path style="fill:#0F6E6E;" d="M590.2,146.28c-0.27-0.35-0.58-0.66-0.95-0.93h0c-0.78-0.56-1.75-0.85-2.86-0.85
			c-1.01,0-1.93,0.24-2.73,0.72c-0.8,0.48-1.44,1.17-1.89,2.07c-0.45,0.88-0.67,1.93-0.67,3.1c0,1.17,0.23,2.21,0.68,3.09
			c0.45,0.89,1.09,1.58,1.89,2.05c0.8,0.48,1.71,0.72,2.73,0.72c1.12,0,2.08-0.29,2.86-0.85c0.37-0.27,0.69-0.58,0.95-0.93v1.64
			h2.49V140.9h-2.49V146.28z M589.77,152.28c-0.29,0.54-0.67,0.95-1.17,1.24c-0.5,0.29-1.07,0.44-1.71,0.44
			c-1,0-1.78-0.31-2.38-0.94c-0.59-0.63-0.89-1.52-0.89-2.64c0-1.13,0.3-2.02,0.89-2.65c0.59-0.63,1.37-0.94,2.38-0.94
			c0.64,0,1.22,0.15,1.71,0.43c0.5,0.29,0.88,0.69,1.17,1.24c0.29,0.55,0.43,1.19,0.43,1.91
			C590.2,151.1,590.06,151.74,589.77,152.28z"/>
		<path style="fill:#0F6E6E;" d="M613.16,150c-0.5-0.19-1.17-0.39-1.98-0.57c-0.61-0.14-1.1-0.27-1.44-0.39
			c-0.31-0.1-0.56-0.26-0.77-0.46c-0.17-0.17-0.26-0.4-0.26-0.7c0-0.42,0.14-0.74,0.41-0.97c0.29-0.25,0.72-0.38,1.27-0.38
			c0.67,0,1.19,0.17,1.57,0.53c0.39,0.35,0.61,0.8,0.68,1.36l0.04,0.31h2.43l-0.06-0.41c-0.17-1.15-0.66-2.09-1.46-2.78v0
			c-0.8-0.69-1.86-1.03-3.16-1.03c-1.23,0-2.22,0.31-2.95,0.91c-0.75,0.62-1.13,1.45-1.13,2.46c0,0.76,0.2,1.38,0.58,1.84
			c0.37,0.44,0.83,0.77,1.36,0.98c0.49,0.19,1.15,0.38,1.96,0.56c0.64,0.14,1.12,0.28,1.47,0.4c0.32,0.11,0.58,0.27,0.79,0.49
			c0.18,0.18,0.27,0.42,0.27,0.75c0,0.41-0.13,0.72-0.4,0.97c-0.28,0.25-0.67,0.38-1.2,0.38c-0.74,0-1.33-0.18-1.77-0.53
			c-0.43-0.35-0.67-0.79-0.72-1.34l-0.03-0.32h-2.45l0.05,0.4c0.15,1.19,0.68,2.13,1.57,2.8c0.87,0.66,2,0.99,3.35,0.99
			c1.18,0,2.14-0.3,2.86-0.91c0.74-0.62,1.12-1.43,1.12-2.41c0-0.79-0.2-1.43-0.6-1.91C614.18,150.55,613.71,150.21,613.16,150z"/>
		<path style="fill:#0F6E6E;" d="M623.69,153.55c-0.13-0.13-0.28-0.43-0.28-1.17v-5.48h2.78v-2.26h-2.78v-2.68h-2.51v2.68h-1.61
			v2.26h1.61v5.44c0,1.32,0.31,2.29,0.92,2.88c0.61,0.59,1.52,0.88,2.71,0.88h1.69v-2.28h-1.45
			C624.24,153.83,623.87,153.73,623.69,153.55z"/>
		<path style="fill:#0F6E6E;" d="M639.78,146.28c-0.27-0.35-0.58-0.66-0.95-0.93h0c-0.78-0.56-1.75-0.85-2.86-0.85
			c-1.01,0-1.93,0.24-2.73,0.72c-0.8,0.48-1.44,1.17-1.89,2.07c-0.45,0.88-0.67,1.93-0.67,3.1c0,1.17,0.23,2.21,0.68,3.09
			c0.45,0.89,1.09,1.58,1.89,2.05c0.8,0.48,1.71,0.72,2.73,0.72c1.12,0,2.08-0.29,2.86-0.85c0.37-0.27,0.69-0.58,0.95-0.93v1.64
			h2.49v-11.46h-2.49V146.28z M639.35,152.28c-0.28,0.54-0.67,0.95-1.17,1.24c-0.5,0.29-1.07,0.44-1.71,0.44
			c-1,0-1.78-0.31-2.38-0.94c-0.59-0.63-0.89-1.52-0.89-2.64c0-1.13,0.3-2.02,0.89-2.65c0.59-0.63,1.37-0.94,2.38-0.94
			c0.64,0,1.22,0.15,1.71,0.43c0.5,0.29,0.88,0.69,1.17,1.24c0.29,0.55,0.43,1.19,0.43,1.91
			C639.78,151.1,639.63,151.74,639.35,152.28z"/>
		<path style="fill:#0F6E6E;" d="M651.43,145.13L651.43,145.13c-0.38,0.23-0.72,0.51-1.01,0.84v-1.34h-2.49v11.46h2.49v-6.02
			c0-1.07,0.28-1.84,0.83-2.28c0.57-0.46,1.33-0.69,2.24-0.69h0.9v-2.65h-0.36C653.04,144.46,652.16,144.69,651.43,145.13z"/>
		<path style="fill:#0F6E6E;" d="M662.3,153.55c-0.13-0.13-0.28-0.43-0.28-1.17v-5.48h2.78v-2.26h-2.78v-2.68h-2.51v2.68h-1.61v2.26
			h1.61v5.44c0,1.32,0.31,2.29,0.92,2.88c0.61,0.59,1.52,0.88,2.71,0.88h1.69v-2.28h-1.45C662.85,153.83,662.48,153.73,662.3,153.55
			z"/>
		<path style="fill:#0F6E6E;" d="M676.26,150c-0.5-0.19-1.17-0.39-1.98-0.57c-0.61-0.14-1.1-0.27-1.44-0.39
			c-0.31-0.1-0.56-0.26-0.77-0.46c-0.17-0.17-0.26-0.4-0.26-0.7c0-0.42,0.14-0.74,0.41-0.97c0.29-0.25,0.72-0.38,1.27-0.38
			c0.67,0,1.19,0.17,1.57,0.53c0.39,0.35,0.61,0.8,0.68,1.36l0.04,0.31h2.43l-0.06-0.41c-0.17-1.15-0.66-2.09-1.46-2.78
			c-0.8-0.69-1.86-1.03-3.16-1.03c-1.23,0-2.22,0.31-2.95,0.91c-0.75,0.62-1.13,1.45-1.13,2.46c0,0.76,0.2,1.38,0.58,1.84
			c0.37,0.44,0.83,0.77,1.36,0.98c0.49,0.19,1.15,0.38,1.96,0.56c0.64,0.14,1.12,0.28,1.47,0.4c0.31,0.11,0.58,0.28,0.79,0.49
			c0.18,0.18,0.27,0.42,0.27,0.75c0,0.41-0.13,0.72-0.4,0.97c-0.28,0.25-0.67,0.38-1.2,0.38c-0.74,0-1.33-0.18-1.77-0.53
			c-0.43-0.35-0.67-0.79-0.72-1.35l-0.03-0.32h-2.45l0.05,0.4c0.15,1.19,0.68,2.13,1.57,2.8c0.87,0.66,2,0.99,3.35,0.99
			c1.18,0,2.14-0.3,2.86-0.91c0.74-0.62,1.12-1.43,1.12-2.41c0-0.79-0.2-1.43-0.6-1.91C677.27,150.55,676.8,150.21,676.26,150z"/>
		<path style="fill:#0F6E6E;" d="M695.15,153.55c-0.13-0.13-0.28-0.43-0.28-1.17v-5.48h2.78v-2.26h-2.78v-2.68h-2.51v2.68h-1.61
			v2.26h1.61v5.44c0,1.32,0.31,2.29,0.92,2.88c0.61,0.59,1.52,0.88,2.71,0.88h1.69v-2.28h-1.45
			C695.7,153.83,695.33,153.73,695.15,153.55z"/>
		<path style="fill:#0F6E6E;" d="M710.83,145.21L710.83,145.21c-0.87-0.47-1.86-0.71-2.94-0.71c-1.09,0-2.08,0.24-2.94,0.71
			c-0.87,0.47-1.57,1.17-2.07,2.06c-0.5,0.89-0.75,1.93-0.75,3.11c0,1.18,0.25,2.23,0.75,3.1c0.5,0.88,1.2,1.57,2.07,2.05
			c0.86,0.47,1.85,0.71,2.94,0.71c1.09,0,2.08-0.24,2.94-0.71c0.87-0.47,1.56-1.16,2.06-2.05c0.49-0.88,0.74-1.92,0.74-3.1
			c0-1.18-0.25-2.22-0.74-3.11C712.4,146.38,711.7,145.68,710.83,145.21z M706.28,153.57c-0.48-0.25-0.87-0.65-1.17-1.18
			c-0.3-0.54-0.45-1.21-0.45-2.01c0-0.81,0.15-1.49,0.45-2.03c0.3-0.54,0.68-0.93,1.17-1.18c0.97-0.52,2.24-0.52,3.21,0
			c0.48,0.26,0.87,0.64,1.17,1.18c0.3,0.54,0.45,1.22,0.45,2.03c0,0.8-0.15,1.47-0.45,2.01c-0.3,0.53-0.69,0.93-1.17,1.18
			C708.52,154.09,707.26,154.09,706.28,153.57z"/>
		<path style="fill:#0F6E6E;" d="M727.36,146.28c-0.27-0.35-0.58-0.66-0.95-0.93h0c-0.78-0.56-1.75-0.85-2.86-0.85
			c-1.01,0-1.93,0.24-2.73,0.72c-0.8,0.48-1.44,1.17-1.89,2.07c-0.45,0.88-0.67,1.93-0.67,3.1c0,1.17,0.23,2.21,0.68,3.09
			c0.45,0.89,1.09,1.58,1.89,2.05c0.8,0.48,1.71,0.72,2.73,0.72c1.12,0,2.08-0.29,2.86-0.85c0.37-0.27,0.69-0.58,0.95-0.93v1.64
			h2.49V140.9h-2.49V146.28z M726.93,152.28c-0.29,0.54-0.67,0.95-1.17,1.24c-0.5,0.29-1.07,0.44-1.71,0.44
			c-1,0-1.78-0.31-2.38-0.94c-0.59-0.63-0.89-1.52-0.89-2.64c0-1.13,0.3-2.02,0.89-2.65c0.59-0.63,1.37-0.94,2.38-0.94
			c0.64,0,1.22,0.15,1.71,0.43c0.5,0.29,0.88,0.69,1.17,1.24c0.29,0.55,0.43,1.19,0.43,1.91
			C727.36,151.1,727.21,151.74,726.93,152.28z"/>
		<path style="fill:#0F6E6E;" d="M744.09,146.28c-0.27-0.35-0.58-0.66-0.95-0.93c-0.78-0.56-1.75-0.85-2.86-0.85
			c-1.01,0-1.93,0.24-2.73,0.72c-0.8,0.48-1.43,1.17-1.89,2.07c-0.45,0.88-0.68,1.92-0.68,3.1c0,1.18,0.23,2.22,0.68,3.09
			c0.45,0.88,1.09,1.58,1.89,2.05c0.8,0.48,1.71,0.72,2.73,0.72c1.12,0,2.08-0.29,2.86-0.85c0.37-0.27,0.69-0.58,0.95-0.93v1.64
			h2.49v-11.46h-2.49V146.28z M743.66,152.28c-0.28,0.54-0.67,0.95-1.17,1.24c-0.5,0.29-1.07,0.44-1.71,0.44
			c-1,0-1.78-0.31-2.38-0.94c-0.59-0.63-0.89-1.52-0.89-2.64c0-1.13,0.3-2.02,0.89-2.65c0.59-0.63,1.37-0.94,2.38-0.94
			c0.64,0,1.22,0.15,1.71,0.43c0.5,0.29,0.88,0.69,1.17,1.24c0.29,0.55,0.43,1.19,0.43,1.91
			C744.09,151.1,743.94,151.74,743.66,152.28z"/>
		<polygon style="fill:#0F6E6E;" points="756.81,152.49 753.57,144.64 750.8,144.64 755.47,155.57 753.09,161.2 755.89,161.2 
			762.56,144.64 759.81,144.64 		"/>
		<rect x="765.99" y="153.3" style="fill:#0F6E6E;" width="2.87" height="2.81"/>
	</g>
</g>
<g>
</g>
<g>
</g>
<g>
</g>
<g>
</g>
<g>
</g>
<g>
</g>
<g>
</g>
<g>
</g>
<g>
</g>
<g>
</g>
<g>
</g>
<g>
</g>
<g>
</g>
<g>
</g>
<g>
</g>
</svg>
